# xmcd
#
# Track frame offsets: 
#        150
#        16688
#        36076
#        51807
#        66197
#        81778
#        97071
#        111342
#        126143
#        142017
#        156691
#        176039
#
# Disc length: 2616 seconds
#
# Revision: 3
# Processed by: cddbd v1.5.2PL0 Copyright (c) Steve Scherf et al.
# Submitted via: ExactAudioCopy v1.1
#
DISCID=a90a360c
DTITLE=Adele - 19 ~Expanded Edition [CD 01)
DYEAR=2008
DGENRE=Pop
TTITLE0=Daydreamer
TTITLE1=Best For Last
TTITLE2=Chasing Pavements
TTITLE3=Cold Shoulder
TTITLE4=Crazy For You
TTITLE5=Melt My Heart To Stone
TTITLE6=First Love
TTITLE7=Right As Rain
TTITLE8=Make You Feel My Love
TTITLE9=My Same
TTITLE10=Tired
TTITLE11=Hometown Glory
EXTD=YEAR: 2008
EXTT0=
EXTT1=
EXTT2=
EXTT3=
EXTT4=
EXTT5=
EXTT6=
EXTT7=
EXTT8=
EXTT9=
EXTT10=
EXTT11=
PLAYORDER=
